# File created by Blade
# Date/Time:  Tue Sep 30 19:35:54 2014
#---------------------------------------------------------
:version 1.10
:name HOM
:units
  mass 1.0
  length 1.000000
  angle deg
:documentation
     Acclaim Skeleton File
:root
   axis xyz
   order TX TY TZ RX RY RZ
   position 0.000000 0.000000 0.000000
   orientation 0 0 0
:bonedata
   begin
      id 1
      name Spine_dum
      direction 0.000000 1.000000 0.000000
      length 3.241213
      axis 0.0 0.0 0.0 xyz
   end
   begin
      id 2
      name LeftUpLeg_dum
      direction 1.000000 0.000000 0.000000
      length 3.434019
      axis 0.0 0.0 0.0 xyz
   end
   begin
      id 3
      name RightUpLeg_dum
      direction -1.000000 0.000000 0.000000
      length 3.434019
      axis 0.0 0.0 0.0 xyz
   end
   begin
      id 4
      name Spine
      direction 0.000000 1.000000 0.000000
      length 0.000000
      axis 0.0 0.0 0.0 xyz
      dof rx ry rz
   end
   begin
      id 5
      name Spine_dum1
      direction 0.000000 1.000000 0.000000
      length 18.382958
      axis 0.0 0.0 0.0 xyz
   end
   begin
      id 6
      name Spine_dum2
      direction 0.000000 1.000000 0.000000
      length 12.828261
      axis 0.0 0.0 0.0 xyz
   end
   begin
      id 7
      name Spine_dum3
      direction 0.000000 1.000000 0.000000
      length 12.828261
      axis 0.0 0.0 0.0 xyz
   end
   begin
      id 8
      name Head
      direction 0.000000 1.000000 0.000000
      length 4.527550
      axis 0.0 0.0 0.0 xyz
      dof rx ry rz
   end
   begin
      id 9
      name LeftShoulder
      direction 1.000000 0.000000 0.000000
      length 7.748055
      axis 0.0 0.0 -90.0 xyz
      dof rx ry rz
   end
   begin
      id 10
      name LeftArm
      direction 1.000000 0.000000 0.000000
      length 10.635614
      axis 0.0 0.0 -90.0 xyz
      dof rx ry rz
   end
   begin
      id 11
      name LeftForeArm
      direction 1.000000 0.000000 0.000000
      length 8.346755
      axis 0.0 0.0 -90.0 xyz
      dof ry rz rx
   end
   begin
      id 12
      name LeftHand
      direction 0.000000 0.000000 0.000000
      length 0.000000
      axis 0.0 0.0 -90.0 xyz
      dof rx ry rz
   end
   begin
      id 13
      name LeftHand_dum1
      direction 0.000000 0.000000 0.000000
      length 0.000000
      axis 0.0 0.0 -90.0 xyz
   end
   begin
      id 14
      name LeftHand_dum2
      direction 1.000000 0.000000 0.000000
      length 3.937000
      axis 0.0 0.0 -90.0 xyz
   end
   begin
      id 15
      name LeftHandThumb1
      direction 0.000000 0.000000 1.000000
      length 3.937000
      axis 0.0 0.0 -90.0 xyz
      dof rx rz ry
   end
   begin
      id 16
      name RightShoulder
      direction -1.000000 0.000000 0.000000
      length 7.748055
      axis 0.0 0.0 90.0 xyz
      dof rx ry rz
   end
   begin
      id 17
      name RightArm
      direction -1.000000 0.000000 0.000000
      length 10.635614
      axis 0.0 0.0 90.0 xyz
      dof rx ry rz
   end
   begin
      id 18
      name RightForeArm
      direction -1.000000 0.000000 0.000000
      length 8.346755
      axis 0.0 0.0 90.0 xyz
      dof ry rz rx
   end
   begin
      id 19
      name RightHand
      direction 0.000000 0.000000 0.000000
      length 0.000000
      axis 0.0 0.0 90.0 xyz
      dof rx ry rz
   end
   begin
      id 20
      name RightHand_dum1
      direction 0.000000 0.000000 0.000000
      length 0.000000
      axis 0.0 0.0 90.0 xyz
   end
   begin
      id 21
      name RightHand_dum2
      direction -1.000000 0.000000 0.000000
      length 3.937000
      axis 0.0 0.0 90.0 xyz
   end
   begin
      id 22
      name RightHandThumb1
      direction 0.000000 0.000000 1.000000
      length 3.937000
      axis 0.0 0.0 90.0 xyz
      dof rx rz ry
   end
   begin
      id 23
      name LeftUpLeg
      direction 0.000000 -1.000000 0.000000
      length 15.713025
      axis 0.0 0.0 0.0 xyz
      dof rx ry rz
   end
   begin
      id 24
      name LeftLeg
      direction 0.000000 -1.000000 0.000000
      length 14.435119
      axis 0.0 0.0 0.0 xyz
      dof rx ry rz
   end
   begin
      id 25
      name LeftFoot
      direction 0.000000 -0.258819 0.965926
      length 4.938895
      axis 15.0 0.0 0.0 xyz
      dof rx ry rz
   end
   begin
      id 26
      name LeftToeBase
      direction 0.000000 0.000000 1.000000
      length 2.952750
      axis 0.0 0.0 0.0 xyz
      dof rx ry rz
   end
   begin
      id 27
      name RightUpLeg
      direction 0.000000 -1.000000 0.000000
      length 15.713025
      axis 0.0 0.0 0.0 xyz
      dof rx ry rz
   end
   begin
      id 28
      name RightLeg
      direction 0.000000 -1.000000 0.000000
      length 14.435119
      axis 0.0 0.0 0.0 xyz
      dof rx ry rz
   end
   begin
      id 29
      name RightFoot
      direction 0.000000 -0.258819 0.965926
      length 4.938895
      axis 15.0 0.0 0.0 xyz
      dof rx ry rz
   end
   begin
      id 30
      name RightToeBase
      direction 0.000000 0.000000 1.000000
      length 2.952750
      axis 0.0 0.0 0.0 xyz
      dof rx ry rz
   end
:hierarchy
   begin
      root Spine_dum LeftUpLeg_dum RightUpLeg_dum
      Spine_dum Spine
      LeftUpLeg_dum LeftUpLeg
      RightUpLeg_dum RightUpLeg
      Spine Spine_dum1 Spine_dum2 Spine_dum3
      Spine_dum1 Head
      Spine_dum2 LeftShoulder
      Spine_dum3 RightShoulder
      LeftShoulder LeftArm
      LeftArm LeftForeArm
      LeftForeArm LeftHand
      LeftHand LeftHand_dum1 LeftHand_dum2
      LeftHand_dum1 LeftHandThumb1
      RightShoulder RightArm
      RightArm RightForeArm
      RightForeArm RightHand
      RightHand RightHand_dum1 RightHand_dum2
      RightHand_dum1 RightHandThumb1
      LeftUpLeg LeftLeg
      LeftLeg LeftFoot
      LeftFoot LeftToeBase
      RightUpLeg RightLeg
      RightLeg RightFoot
      RightFoot RightToeBase
   end

# File created by Blade
# Date/Time:  Tue Sep 23 19:15:59 2014
# Frame Rate: 120.000 fps
#------------------------------------------------------
:FULLY-SPECIFIED
:DEGREES
771
root 0.659204 32.431772 -6.469772 40.002326 -35.142759 -19.136643
Spine -32.076932 -12.926955 17.184102
Head 2.723996 3.481335 4.924628
LeftShoulder 1.782533 36.801024 27.888020
LeftArm 75.490603 13.807768 -54.562391
LeftForeArm 55.386406 -0.000000 43.120674
LeftHand 48.674342 0.000000 -4.827487
LeftHandThumb1 -26.253704 0.000000 33.147579
RightShoulder -0.902297 -24.209544 -33.302176
RightArm 93.396787 -6.155897 34.277110
RightForeArm 5.149856 -0.000000 69.087381
RightHand -8.380469 -0.000000 30.860080
RightHandThumb1 -24.326973 -0.000000 -32.862282
LeftUpLeg -41.908673 5.545594 7.542172
LeftLeg 26.992937 -0.000000 -0.000000
LeftFoot -15.337907 5.137477 6.376988
LeftToeBase 0.042688 -0.000000 -0.000000
RightUpLeg -159.481846 39.237317 25.989240
RightLeg 108.784525 -0.000000 -0.000000
RightFoot 39.172418 -22.445942 16.101847
RightToeBase 49.147825 -0.000000 -0.000000
772
root 0.630056 32.435438 -6.470751 39.894751 -35.132751 -19.202653
Spine -31.974425 -12.802031 16.948528
Head 2.786339 3.158654 5.212768
LeftShoulder 1.921135 36.728769 28.158583
LeftArm 75.485092 13.719142 -54.417186
LeftForeArm 55.474125 -0.000000 43.397264
LeftHand 48.552302 -0.000000 -4.654092
LeftHandThumb1 -26.253704 0.000000 33.147579
RightShoulder -0.734489 -24.032396 -33.468676
RightArm 94.035152 -5.910580 32.548524
RightForeArm 7.496094 -0.000000 66.546039
RightHand -8.235084 -0.000000 31.874983
RightHandThumb1 -24.326973 -0.000000 -32.862282
LeftUpLeg -41.712134 5.473656 7.678806
LeftLeg 26.977194 -0.000000 -0.000000
LeftFoot -15.331189 5.381078 6.576591
LeftToeBase -0.014825 -0.000000 0.000000
RightUpLeg -159.407311 39.390193 25.947697
RightLeg 108.472757 -0.000000 -0.000000
RightFoot 39.164909 -22.448146 16.238944
RightToeBase 48.955930 -0.000000 -0.000000
773
root 0.601023 32.439024 -6.475112 39.813642 -35.082785 -19.331215
Spine -31.843913 -12.689859 16.777036
Head 2.815566 2.849150 5.497474
LeftShoulder 2.021120 36.632530 28.373117
LeftArm 75.465060 13.608405 -54.302848
LeftForeArm 55.489307 -0.000000 43.637362
LeftHand 48.478213 -0.000000 -4.764294
LeftHandThumb1 -26.253704 0.000000 33.147579
RightShoulder -0.564817 -23.909697 -33.582332
RightArm 94.534535 -5.580852 31.037291
RightForeArm 10.481393 -0.000000 64.169747
RightHand -8.227683 0.000000 33.015427
RightHandThumb1 -24.326973 -0.000000 -32.862282
LeftUpLeg -41.545046 5.402663 7.890939
LeftLeg 27.018816 -0.000000 -0.000000
LeftFoot -15.365529 5.547194 6.503374
LeftToeBase 0.033067 -0.000000 -0.000000
RightUpLeg -159.217350 39.544656 26.055507
RightLeg 108.126981 -0.000000 -0.000000
RightFoot 39.171663 -22.368078 16.171249
RightToeBase 49.356340 -0.000000 -0.000000
774
root 0.580828 32.444416 -6.480027 39.862717 -35.016819 -19.445103
Spine -31.860405 -12.570575 16.677155
Head 2.826353 2.536467 5.703213
LeftShoulder 2.084409 36.629154 28.527328
LeftArm 75.564587 13.444667 -54.121406
LeftForeArm 55.592464 -0.000000 43.737888
LeftHand 48.457257 -0.000000 -4.638061
LeftHandThumb1 -26.253704 0.000000 33.147579
RightShoulder -0.427092 -23.761881 -33.698352
RightArm 94.812977 -5.288726 29.869048
RightForeArm 14.121082 -0.000000 61.975162
RightHand -8.432488 -0.000000 34.334927
RightHandThumb1 -24.326973 -0.000000 -32.862282
LeftUpLeg -41.554725 5.427281 8.041584
LeftLeg 27.098732 -0.000000 -0.000000
LeftFoot -15.414851 5.584693 6.471148
LeftToeBase 0.143748 -0.000000 -0.000000
RightUpLeg -159.178753 39.701871 26.042762
RightLeg 107.758372 -0.000000 -0.000000
RightFoot 39.099387 -22.374124 16.247737
RightToeBase 49.296819 -0.000000 -0.000000
775
root 0.559551 32.450192 -6.486544 39.941141 -34.911727 -19.635450
Spine -31.859520 -12.456333 16.659609
Head 2.864705 2.224052 5.876496
LeftShoulder 2.172905 36.609050 28.662802
LeftArm 75.625329 13.266761 -53.966307
LeftForeArm 55.642150 -0.000000 43.853650
LeftHand 48.239372 0.000000 -4.638575
LeftHandThumb1 -26.253704 0.000000 33.147579
RightShoulder -0.291553 -23.756983 -33.772347
RightArm 94.963288 -4.804308 28.852822
RightForeArm 18.221013 -0.000000 60.087311
RightHand -9.042256 -0.000000 35.114328
RightHandThumb1 -24.326973 -0.000000 -32.862282
LeftUpLeg -41.585611 5.554943 8.231844
LeftLeg 27.235585 -0.000000 -0.000000
LeftFoot -15.545422 5.488431 6.283377
LeftToeBase 0.334168 -0.000000 -0.000000
RightUpLeg -159.045518 39.849754 26.166470
RightLeg 107.371019 -0.000000 -0.000000
RightFoot 39.034660 -22.312910 16.236653
RightToeBase 49.001168 -0.000000 -0.000000
776
root 0.542030 32.454705 -6.494663 40.043911 -34.806785 -19.822507
Spine -31.880054 -12.336486 16.647154
Head 2.898329 1.910101 6.033290
LeftShoulder 2.291557 36.625378 28.800315
LeftArm 75.731897 13.042789 -53.881030
LeftForeArm 55.710858 -0.000000 43.849165
LeftHand 48.291700 -0.000000 -4.710702
LeftHandThumb1 -26.253704 0.000000 33.147579
RightShoulder -0.190785 -23.818379 -33.800474
RightArm 94.957714 -4.181547 27.853153
RightForeArm 21.984447 -0.000000 58.619321
RightHand -9.080566 -0.000000 35.821464
RightHandThumb1 -24.326973 -0.000000 -32.862282
LeftUpLeg -41.682296 5.826185 8.350239
LeftLeg 27.415864 -0.000000 -0.000000
LeftFoot -15.774225 5.159642 5.805920
LeftToeBase 0.744950 -0.000000 -0.000000
RightUpLeg -158.829576 40.082231 26.511887
RightLeg 106.998385 -0.000000 -0.000000
RightFoot 39.174427 -22.227330 15.832018
RightToeBase 48.917203 -0.000000 -0.000000
777
root 0.524217 32.455831 -6.502598 40.086459 -34.692674 -19.952366
Spine -31.884899 -12.322203 16.618998
Head 2.931997 1.662643 6.207864
LeftShoulder 2.371891 36.564184 28.955190
LeftArm 75.739048 12.901428 -53.877470
LeftForeArm 55.861473 0.000000 43.867724
LeftHand 48.154023 0.000000 -4.677050
LeftHandThumb1 -26.253704 0.000000 33.147579
RightShoulder -0.094142 -23.691557 -33.819617
RightArm 94.775229 -3.713454 26.896381
RightForeArm 25.138939 0.000000 57.463739
RightHand -8.812852 -0.000000 35.667511
RightHandThumb1 -24.326973 -0.000000 -32.862282
LeftUpLeg -41.781775 6.117873 8.416789
LeftLeg 27.637076 -0.000000 -0.000000
LeftFoot -16.018306 4.675354 5.157963
LeftToeBase 1.231122 -0.000000 -0.000000
RightUpLeg -158.651551 40.228786 26.750529
RightLeg 106.611999 -0.000000 -0.000000
RightFoot 39.323868 -22.221676 15.598675
RightToeBase 48.947725 -0.000000 -0.000000
778
root 0.504577 32.456360 -6.505965 40.097652 -34.502332 -20.072353
Spine -31.888117 -12.385524 16.660031
Head 2.951112 1.431258 6.321097
LeftShoulder 2.474139 36.500926 29.101497
LeftArm 75.676745 12.770383 -54.039195
LeftForeArm 56.056481 -0.000000 43.893748
LeftHand 48.131788 -0.000000 -4.683671
LeftHandThumb1 -26.253704 0.000000 33.147579
RightShoulder -0.080180 -23.665678 -33.823196
RightArm 94.559228 -3.160994 25.886500
RightForeArm 28.391721 -0.000000 56.669169
RightHand -8.591361 -0.000000 36.070046
RightHandThumb1 -24.326973 -0.000000 -32.862282
LeftUpLeg -41.887209 6.393479 8.501991
LeftLeg 27.881558 -0.000000 -0.000000
LeftFoot -16.249379 4.128833 4.560128
LeftToeBase 1.620679 -0.000000 -0.000000
RightUpLeg -158.591058 40.245938 26.835420
RightLeg 106.274025 -0.000000 -0.000000
RightFoot 39.422331 -22.159618 15.448779
RightToeBase 48.831280 -0.000000 -0.000000
779
root 0.482558 32.455094 -6.507391 40.040618 -34.261548 -20.183307
Spine -31.834073 -12.543551 16.744391
Head 2.950994 1.214011 6.403269
LeftShoulder 2.505998 36.378858 29.202388
LeftArm 75.542131 12.701913 -54.248925
LeftForeArm 56.303988 -0.000000 43.935361
LeftHand 48.101985 -0.000000 -4.546469
LeftHandThumb1 -26.253704 0.000000 33.147579
RightShoulder -0.078857 -23.733612 -33.835736
RightArm 94.317719 -2.559683 24.900578
RightForeArm 31.284668 -0.000000 56.195658
RightHand -8.785072 -0.000000 35.807090
RightHandThumb1 -24.326973 -0.000000 -32.862282
LeftUpLeg -41.966137 6.698978 8.580656
LeftLeg 28.164438 -0.000000 -0.000000
LeftFoot -16.461666 3.459708 3.961743
LeftToeBase 1.954037 -0.000000 -0.000000
RightUpLeg -158.538589 40.167846 26.915371
RightLeg 105.952531 -0.000000 -0.000000
RightFoot 39.537019 -22.002687 15.324054
RightToeBase 48.852003 -0.000000 -0.000000
780
root 0.460577 32.453104 -6.505162 39.940887 -34.019576 -20.238895
Spine -31.773411 -12.727858 16.781585
Head 2.929177 0.976920 6.491019
LeftShoulder 2.513671 36.303310 29.288306
LeftArm 75.443806 12.630098 -54.460020
LeftForeArm 56.568566 -0.000000 44.036191
LeftHand 48.008703 -0.000000 -4.443909
LeftHandThumb1 -26.253704 0.000000 33.147579
RightShoulder -0.132975 -23.795222 -33.804977
RightArm 93.930345 -2.061117 24.052393
RightForeArm 33.249088 0.000000 55.988976
RightHand -8.799208 0.000000 36.110672
RightHandThumb1 -24.326973 -0.000000 -32.862282
LeftUpLeg -42.048244 7.086164 8.575052
LeftLeg 28.456453 -0.000000 -0.000000
LeftFoot -16.740324 2.477282 3.043200
LeftToeBase 2.569539 -0.000000 -0.000000
RightUpLeg -158.537244 40.054958 26.920607
RightLeg 105.668634 -0.000000 -0.000000
RightFoot 39.526097 -22.036640 15.315890
RightToeBase 48.889782 -0.000000 -0.000000
781
root 0.434850 32.450664 -6.498250 39.739608 -33.746625 -20.222731
Spine -31.683416 -12.999128 16.779184
Head 2.943528 0.730363 6.588194
LeftShoulder 2.506754 36.320202 29.372124
LeftArm 75.422360 12.521671 -54.676012
LeftForeArm 56.884198 -0.000000 44.097109
LeftHand 48.076538 -0.000000 -4.402795
LeftHandThumb1 -26.253704 0.000000 33.147579
RightShoulder -0.177004 -24.077512 -33.735753
RightArm 93.460754 -1.495301 23.414279
RightForeArm 34.440310 -0.000000 56.108251
RightHand -8.947970 0.000000 35.953387
RightHandThumb1 -24.326973 -0.000000 -32.862282
LeftUpLeg -42.043236 7.433262 8.535369
LeftLeg 28.682322 -0.000000 -0.000000
LeftFoot -16.911290 1.590061 2.336530
LeftToeBase 2.899172 -0.000000 -0.000000
RightUpLeg -158.589506 39.848614 26.851748
RightLeg 105.442251 -0.000000 -0.000000
RightFoot 39.507523 -21.989523 15.355131
RightToeBase 48.777264 -0.000000 -0.000000
782
root 0.411648 32.449893 -6.489120 39.491285 -33.485003 -20.172264
Spine -31.549633 -13.254404 16.743141
Head 2.904229 0.479272 6.605072
LeftShoulder 2.500570 36.329521 29.397696
LeftArm 75.347637 12.405670 -54.805919
LeftForeArm 57.040886 -0.000000 44.301551
LeftHand 47.934337 -0.000000 -4.290284
LeftHandThumb1 -26.253704 0.000000 33.147579
RightShoulder -0.300881 -24.462143 -33.600767
RightArm 92.992459 -0.946108 22.947544
RightForeArm 35.348778 0.000000 56.419100
RightHand -8.620153 -0.000000 35.556546
RightHandThumb1 -24.326973 -0.000000 -32.862282
LeftUpLeg -41.988348 7.800197 8.447083
LeftLeg 28.877188 -0.000000 -0.000000
LeftFoot -17.108841 0.627586 1.733487
LeftToeBase 3.484229 -0.000000 -0.000000
RightUpLeg -158.633392 39.635229 26.784133
RightLeg 105.252638 -0.000000 -0.000000
RightFoot 39.415812 -21.962311 15.269379
RightToeBase 48.739464 -0.000000 -0.000000
783
root 0.387656 32.451487 -6.477550 39.279847 -33.205629 -20.089627
Spine -31.472694 -13.461377 16.686689
Head 2.825138 0.155921 6.558097
LeftShoulder 2.471866 36.318522 29.363287
LeftArm 75.322070 12.298896 -54.830472
LeftForeArm 57.264747 -0.000000 44.508781
LeftHand 47.941528 -0.000000 -4.197728
LeftHandThumb1 -26.253704 0.000000 33.147579
RightShoulder -0.480626 -24.804126 -33.435293
RightArm 92.425638 -0.692205 22.885915
RightForeArm 35.851829 -0.000000 56.903332
RightHand -8.139606 -0.000000 34.969940
RightHandThumb1 -24.326973 -0.000000 -32.862282
LeftUpLeg -41.954029 8.128299 8.346349
LeftLeg 29.007697 -0.000000 -0.000000
LeftFoot -17.325142 -0.286564 1.232463
LeftToeBase 4.204866 -0.000000 -0.000000
RightUpLeg -158.781248 39.433426 26.663282
RightLeg 105.105615 -0.000000 -0.000000
RightFoot 39.360267 -21.974866 15.233239
RightToeBase 48.747931 -0.000000 -0.000000
